<svg width="568" height="196" viewBox="0 0 568 196" fill="none" xmlns="http://www.w3.org/2000/svg">
<path d="M67.5713 85.5675L67.5736 85.5573L67.5757 85.547L82.5584 14.9834C83.407 10.987 80.3591 7.22394 76.2735 7.22394H46.3316C43.2961 7.22394 40.6747 9.34839 40.046 12.3181L3.71488 183.909C2.86892 187.904 5.9165 191.665 10.0005 191.665H39.9489C42.9803 191.665 45.5992 189.546 46.2322 186.581L54.9558 145.73C54.9668 145.725 54.9792 145.72 54.9932 145.715C55.0926 145.679 55.2221 145.658 55.3573 145.665C55.4903 145.672 55.5868 145.704 55.6439 145.734C56.5244 146.196 57.4435 146.606 58.3991 146.966C61.8155 148.363 65.9205 148.982 70.577 148.982C76.648 148.982 82.9315 147.274 89.3851 144.047C93.841 141.819 98.4978 138.342 103.358 133.711L102.529 137.69C101.698 141.679 104.744 145.425 108.819 145.425H136.995C140.033 145.425 142.655 143.298 143.282 140.325L169.71 14.9744C170.552 10.9805 167.505 7.22394 163.423 7.22394H133.479C130.44 7.22394 127.817 9.3528 127.191 12.3265L113.214 78.7798C113.214 78.7822 113.213 78.7847 113.213 78.7871C110.389 91.9048 106.254 100.822 101.149 106.077L101.148 106.078C96.3429 111.029 89.605 113.677 80.4855 113.677C72.4743 113.677 68.695 111.296 67.1194 107.874C65.3473 103.447 65.2461 96.197 67.5713 85.5675ZM219.45 72.3262L219.451 72.3228C220.244 68.5165 221.52 64.5947 223.298 60.5546C225.048 56.578 227.181 53.0285 229.691 49.8902C232.327 46.6355 235.321 44.0339 238.674 42.0528L238.693 42.0414L238.712 42.0297C242.049 39.9985 245.748 38.9722 249.889 38.9722C253.736 38.9722 256.575 40.0876 258.72 42.1063L258.756 42.1397L258.792 42.1721C261.149 44.2669 262.216 46.6545 262.216 49.5207C262.216 52.132 261.908 55.0338 261.268 58.2378C261.267 58.2417 261.267 58.2455 261.266 58.2494L244.746 137.692C243.916 141.681 246.962 145.425 251.036 145.425H281.242C284.283 145.425 286.908 143.293 287.531 140.317L301.767 72.3262L301.768 72.3228C302.561 68.5165 303.837 64.5947 305.615 60.5545C307.365 56.5776 309.498 53.0278 312.008 49.8893C314.644 46.635 317.638 44.0337 320.991 42.0528L321.01 42.0414L321.029 42.0297C324.366 39.9985 328.065 38.9722 332.205 38.9722C336.053 38.9722 338.892 40.0876 341.037 42.1063L341.072 42.1397L341.109 42.1721C343.465 44.2669 344.532 46.6545 344.532 49.5207C344.532 52.1315 344.225 55.0326 343.585 58.236C343.584 58.2405 343.583 58.2449 343.583 58.2494L327.062 137.692C326.233 141.681 329.278 145.425 333.353 145.425H363.308C366.346 145.425 368.969 143.297 369.595 140.324L385.349 65.4921C385.35 65.4887 385.35 65.4852 385.351 65.4817C386.199 61.5793 387.048 57.5928 387.896 53.5221L387.898 53.5087L387.901 53.4953C388.789 49.0534 389.238 44.6785 389.238 40.3744C389.238 34.3291 388.045 28.8582 385.549 24.0586C383.111 19.371 379.803 15.4855 375.632 12.4522C371.544 9.47854 366.847 7.28002 361.587 5.82707C356.533 4.38486 351.309 3.66704 345.925 3.66704C341.382 3.66704 336.779 4.30131 332.122 5.55106C327.629 6.63336 323.316 8.25333 319.188 10.4071C315.078 12.5515 311.237 15.1402 307.668 18.169C306.261 19.2971 304.943 20.4846 303.716 21.7325C303.74 21.7077 303.73 21.7356 303.623 21.7621C303.505 21.7909 303.321 21.8031 303.102 21.7594C302.883 21.7158 302.704 21.6313 302.587 21.5466C302.475 21.4659 302.459 21.4154 302.464 21.4276C300.248 16.3322 296.875 12.315 292.339 9.5134C285.939 5.56069 278.343 3.66704 269.706 3.66704C259.623 3.66704 250.406 5.52649 242.115 9.3117C237.393 11.4673 233.092 14.3116 229.21 17.825L229.824 15.0245C230.703 11.0169 227.651 7.22394 223.548 7.22394H195.167C192.12 7.22394 189.493 9.36348 188.875 12.3468L162.932 137.698C162.107 141.685 165.152 145.425 169.224 145.425H198.926C201.966 145.425 204.591 143.293 205.214 140.317L219.45 72.3262Z" stroke="black" stroke-width="6.85"/>
<path d="M384.398 159.104H386.83V165.824H386.958C387.214 164.8 387.662 163.84 388.302 162.944C388.942 162.005 389.71 161.195 390.606 160.512C391.545 159.829 392.569 159.296 393.678 158.912C394.83 158.528 396.025 158.336 397.262 158.336C398.841 158.336 400.206 158.549 401.358 158.976C402.51 159.36 403.491 159.893 404.302 160.576C405.113 161.216 405.753 161.963 406.222 162.816C406.691 163.627 407.011 164.459 407.182 165.312H407.31C408.291 163.008 409.593 161.28 411.214 160.128C412.878 158.933 415.054 158.336 417.742 158.336C419.235 158.336 420.601 158.571 421.838 159.04C423.118 159.467 424.206 160.149 425.102 161.088C426.041 161.984 426.766 163.136 427.278 164.544C427.79 165.952 428.046 167.616 428.046 169.536V192H425.614V169.472C425.614 167.381 425.294 165.739 424.654 164.544C424.014 163.349 423.246 162.453 422.35 161.856C421.497 161.216 420.622 160.832 419.726 160.704C418.873 160.533 418.211 160.448 417.742 160.448C416.249 160.448 414.862 160.704 413.582 161.216C412.345 161.728 411.257 162.496 410.318 163.52C409.422 164.544 408.718 165.824 408.206 167.36C407.694 168.853 407.438 170.581 407.438 172.544V192H405.006V169.472C405.006 167.424 404.686 165.803 404.046 164.608C403.449 163.371 402.723 162.453 401.87 161.856C401.059 161.259 400.206 160.875 399.31 160.704C398.457 160.533 397.774 160.448 397.262 160.448C396.11 160.448 394.915 160.683 393.678 161.152C392.441 161.621 391.31 162.347 390.286 163.328C389.262 164.309 388.43 165.568 387.79 167.104C387.15 168.64 386.83 170.453 386.83 172.544V192H384.398V159.104ZM435.848 152.896V146.304H438.28V152.896H435.848ZM435.848 192V159.104H438.28V192H435.848ZM470.79 169.28C470.662 167.829 470.278 166.549 469.638 165.44C469.04 164.331 468.251 163.413 467.27 162.688C466.288 161.963 465.136 161.408 463.814 161.024C462.534 160.64 461.147 160.448 459.654 160.448C457.606 160.448 455.792 160.875 454.214 161.728C452.635 162.539 451.312 163.648 450.246 165.056C449.179 166.421 448.368 168 447.814 169.792C447.259 171.541 446.982 173.355 446.982 175.232C446.982 177.451 447.238 179.499 447.75 181.376C448.262 183.253 449.051 184.896 450.118 186.304C451.184 187.669 452.507 188.736 454.086 189.504C455.664 190.272 457.52 190.656 459.654 190.656C461.19 190.656 462.598 190.4 463.878 189.888C465.2 189.376 466.352 188.672 467.334 187.776C468.358 186.88 469.19 185.813 469.83 184.576C470.47 183.296 470.896 181.909 471.11 180.416H473.542C473.286 182.379 472.752 184.128 471.942 185.664C471.131 187.2 470.107 188.501 468.87 189.568C467.632 190.592 466.224 191.381 464.646 191.936C463.067 192.491 461.403 192.768 459.654 192.768C456.966 192.768 454.662 192.299 452.742 191.36C450.864 190.379 449.307 189.077 448.07 187.456C446.875 185.835 445.979 183.979 445.382 181.888C444.827 179.755 444.549 177.536 444.549 175.232C444.549 172.928 444.87 170.752 445.51 168.704C446.192 166.656 447.174 164.864 448.454 163.328C449.734 161.792 451.312 160.576 453.19 159.68C455.067 158.784 457.222 158.336 459.654 158.336C461.446 158.336 463.11 158.571 464.646 159.04C466.224 159.467 467.611 160.128 468.806 161.024C470.043 161.92 471.046 163.072 471.814 164.48C472.582 165.845 473.051 167.445 473.222 169.28H470.79ZM481.641 166.4H481.833C482.132 165.333 482.665 164.331 483.433 163.392C484.244 162.453 485.204 161.643 486.313 160.96C487.465 160.277 488.724 159.765 490.089 159.424C491.497 159.04 492.948 158.869 494.441 158.912V161.344C493.161 161.173 491.689 161.301 490.025 161.728C488.404 162.155 486.846 163.093 485.353 164.544C484.756 165.184 484.222 165.803 483.753 166.4C483.326 166.997 482.964 167.659 482.665 168.384C482.366 169.109 482.132 169.92 481.961 170.816C481.79 171.712 481.684 172.779 481.641 174.016V192H479.209V159.104H481.641V166.4ZM494.736 175.552C494.736 173.205 495.056 171.008 495.696 168.96C496.378 166.869 497.36 165.035 498.64 163.456C499.92 161.877 501.498 160.64 503.376 159.744C505.253 158.805 507.408 158.336 509.84 158.336C512.272 158.336 514.426 158.805 516.304 159.744C518.181 160.64 519.76 161.877 521.04 163.456C522.32 165.035 523.28 166.869 523.92 168.96C524.602 171.008 524.944 173.205 524.944 175.552C524.944 177.899 524.602 180.117 523.92 182.208C523.28 184.299 522.32 186.133 521.04 187.712C519.76 189.248 518.181 190.485 516.304 191.424C514.426 192.32 512.272 192.768 509.84 192.768C507.408 192.768 505.253 192.32 503.376 191.424C501.498 190.485 499.92 189.248 498.64 187.712C497.36 186.133 496.378 184.299 495.696 182.208C495.056 180.117 494.736 177.899 494.736 175.552ZM497.168 175.552C497.168 177.515 497.445 179.413 498 181.248C498.554 183.04 499.365 184.64 500.432 186.048C501.498 187.456 502.821 188.587 504.4 189.44C505.978 190.251 507.792 190.656 509.84 190.656C511.888 190.656 513.701 190.251 515.28 189.44C516.858 188.587 518.181 187.456 519.248 186.048C520.314 184.64 521.125 183.04 521.68 181.248C522.234 179.413 522.512 177.515 522.512 175.552C522.512 173.589 522.234 171.712 521.68 169.92C521.125 168.085 520.314 166.464 519.248 165.056C518.181 163.648 516.858 162.539 515.28 161.728C513.701 160.875 511.888 160.448 509.84 160.448C507.792 160.448 505.978 160.875 504.4 161.728C502.821 162.539 501.498 163.648 500.432 165.056C499.365 166.464 498.554 168.085 498 169.92C497.445 171.712 497.168 173.589 497.168 175.552ZM530.647 159.104H533.079V166.144H533.207C533.633 164.907 534.231 163.819 534.999 162.88C535.809 161.899 536.727 161.067 537.751 160.384C538.817 159.701 539.969 159.189 541.207 158.848C542.444 158.507 543.703 158.336 544.983 158.336C546.903 158.336 548.524 158.571 549.847 159.04C551.212 159.509 552.321 160.128 553.175 160.896C554.028 161.664 554.689 162.539 555.159 163.52C555.671 164.459 556.033 165.419 556.247 166.4C556.46 167.381 556.588 168.341 556.631 169.28C556.673 170.176 556.695 170.965 556.695 171.648V192H554.263V171.2C554.263 170.389 554.199 169.365 554.071 168.128C553.943 166.891 553.559 165.717 552.919 164.608C552.321 163.456 551.383 162.475 550.103 161.664C548.865 160.853 547.137 160.448 544.919 160.448C543.041 160.448 541.377 160.789 539.927 161.472C538.476 162.155 537.239 163.115 536.215 164.352C535.191 165.547 534.401 166.997 533.847 168.704C533.335 170.368 533.079 172.203 533.079 174.208V192H530.647V159.104Z" fill="black"/>
</svg>
