<svg width="402" height="203" viewBox="0 0 402 203" fill="none" xmlns="http://www.w3.org/2000/svg">
<path d="M74.2263 89.9029L74.2298 89.8866L74.2333 89.8704L89.216 19.3068L83.9093 18.18L89.216 19.3067C90.3287 14.0663 86.332 9.1319 80.9747 9.1319H51.0328C47.0524 9.1319 43.615 11.9177 42.7905 15.8118L6.45943 187.402C5.35014 192.642 9.34638 197.573 14.7017 197.573H44.6501C48.625 197.573 52.0592 194.794 52.8893 190.907L61.1463 152.24C61.5481 152.414 61.9557 152.58 62.3689 152.736C66.0974 154.255 70.4723 154.89 75.2782 154.89C81.7293 154.89 88.3192 153.075 94.9807 149.744C98.2803 148.094 101.65 145.812 105.092 142.949C105.105 147.472 108.782 151.333 113.52 151.333H141.696C145.679 151.333 149.118 148.544 149.94 144.646L176.368 19.2949C177.472 14.0578 173.476 9.1319 168.124 9.1319H138.18C134.195 9.1319 130.756 11.9234 129.935 15.8228L115.96 82.267C115.959 82.2706 115.959 82.2742 115.958 82.2778C113.167 95.2422 109.139 103.729 104.415 108.591L104.414 108.593C100.067 113.071 93.8949 115.585 85.1867 115.585C77.5656 115.585 74.7718 113.361 73.658 110.99C72.1355 107.135 71.9309 100.396 74.2263 89.9029ZM226.109 76.6441L226.11 76.6387C226.872 72.9835 228.102 69.1947 229.83 65.268L224.864 63.0831L229.83 65.268C231.513 61.4419 233.558 58.0449 235.95 55.0521C238.444 51.974 241.258 49.5348 244.392 47.6826L244.423 47.6645L244.453 47.6461C247.464 45.8134 250.801 44.8802 254.59 44.8802C258.013 44.8802 260.335 45.8557 262.051 47.4707L262.107 47.5236L262.164 47.5749C264.117 49.3105 264.917 51.1636 264.917 53.4287C264.917 55.8833 264.628 58.6494 264.01 61.7459C264.008 61.7523 264.007 61.7587 264.006 61.7651L247.489 141.193C246.401 146.424 250.394 151.333 255.737 151.333H285.943C289.931 151.333 293.372 148.538 294.19 144.635L308.426 76.6441L308.427 76.6387C309.189 72.9834 310.419 69.1946 312.147 65.268C313.83 61.4419 315.874 58.0449 318.267 55.0521C320.761 51.9741 323.575 49.5348 326.709 47.6826L326.74 47.6645L326.77 47.6461C329.781 45.8134 333.117 44.8802 336.907 44.8802C340.33 44.8802 342.651 45.8557 344.367 47.4707L344.423 47.5236L344.481 47.5749C346.434 49.3105 347.234 51.1636 347.234 53.4287C347.234 55.8829 346.945 58.6484 346.327 61.7441C346.325 61.7511 346.324 61.7581 346.323 61.7651L329.805 141.193C328.718 146.424 332.711 151.333 338.054 151.333H368.009C371.993 151.333 375.432 148.542 376.253 144.644L392.004 69.825C392.005 69.8196 392.007 69.8141 392.008 69.8087C392.857 65.9023 393.706 61.912 394.555 57.838L394.559 57.8167L394.563 57.7955C395.476 53.2324 395.939 48.7261 395.939 44.2824C395.939 37.9708 394.692 32.1735 392.024 27.0438C389.449 22.0917 385.94 17.9647 381.51 14.7427C377.209 11.6151 372.293 9.31958 366.828 7.8094C361.594 6.31634 356.188 5.575 350.626 5.575C345.904 5.575 341.134 6.23343 336.33 7.52068C331.686 8.64153 327.228 10.3173 322.964 12.5419L325.467 17.3382L322.964 12.5419C318.729 14.7516 314.772 17.4179 311.097 20.534C310.115 21.3216 309.174 22.1381 308.274 22.9841C305.915 18.2653 302.523 14.4571 298.091 11.7198C291.317 7.53591 283.34 5.575 274.407 5.575C264.074 5.575 254.569 7.48175 245.985 11.4003C242.672 12.9129 239.561 14.7499 236.653 16.9019C236.328 12.6539 232.777 9.1319 228.249 9.1319H199.868C195.873 9.1319 192.428 11.9374 191.618 15.8494L196.93 16.9489L191.618 15.8494L165.675 141.201C164.593 146.429 168.585 151.333 173.925 151.333H203.627C207.614 151.333 211.056 148.538 211.873 144.635L226.109 76.6441Z" stroke="black" stroke-width="10.85"/>
<path d="M201.75 163.104H204.182L202.71 169.952L202.838 170.08C203.435 169.013 204.118 168.011 204.886 167.072C205.696 166.133 206.592 165.323 207.574 164.64C208.555 163.915 209.622 163.36 210.774 162.976C211.926 162.549 213.163 162.336 214.486 162.336C217.088 162.336 219.072 163.061 220.438 164.512C221.846 165.963 222.55 167.968 222.55 170.528H222.742C223.808 168.096 225.387 166.133 227.478 164.64C229.611 163.104 232.022 162.336 234.71 162.336C235.862 162.336 236.971 162.507 238.038 162.848C239.104 163.189 240.043 163.701 240.854 164.384C241.707 165.067 242.368 165.899 242.838 166.88C243.35 167.819 243.606 168.928 243.606 170.208C243.606 171.232 243.52 172.256 243.35 173.28C243.179 174.261 242.966 175.328 242.71 176.48L238.55 196H236.118L240.278 176.608C240.406 176.011 240.576 175.157 240.79 174.048C241.046 172.939 241.174 171.829 241.174 170.72C241.174 169.568 240.96 168.587 240.534 167.776C240.107 166.965 239.552 166.325 238.87 165.856C238.187 165.344 237.398 164.981 236.502 164.768C235.648 164.555 234.752 164.448 233.814 164.448C232.448 164.448 231.104 164.853 229.782 165.664C228.502 166.475 227.307 167.52 226.198 168.8C225.131 170.037 224.214 171.403 223.446 172.896C222.678 174.389 222.144 175.84 221.846 177.248L217.814 196H215.382L219.414 177.248C219.627 176.395 219.798 175.392 219.926 174.24C220.054 173.088 220.118 172 220.118 170.976C220.118 168.885 219.542 167.285 218.39 166.176C217.238 165.024 215.68 164.448 213.718 164.448C211.968 164.448 210.368 164.96 208.918 165.984C207.467 166.965 206.166 168.224 205.014 169.76C203.904 171.253 202.966 172.896 202.198 174.688C201.472 176.437 200.939 178.101 200.598 179.68L197.078 196H194.646L201.75 163.104ZM255.119 150.304H257.551L256.207 156.896H253.775L255.119 150.304ZM252.431 163.104H254.863L248.015 196H245.583L252.431 163.104ZM285.775 185.248C284.495 188.661 282.596 191.435 280.079 193.568C277.604 195.701 274.489 196.768 270.735 196.768C268.473 196.768 266.532 196.427 264.911 195.744C263.332 195.019 262.031 194.037 261.007 192.8C259.983 191.52 259.236 190.027 258.767 188.32C258.297 186.613 258.063 184.736 258.063 182.688C258.063 180.128 258.489 177.632 259.343 175.2C260.196 172.768 261.391 170.592 262.927 168.672C264.505 166.752 266.383 165.216 268.559 164.064C270.777 162.912 273.209 162.336 275.855 162.336C277.561 162.336 279.14 162.613 280.591 163.168C282.084 163.68 283.364 164.427 284.431 165.408C285.497 166.347 286.308 167.499 286.863 168.864C287.417 170.187 287.631 171.68 287.503 173.344H285.071C285.071 170.528 284.239 168.352 282.575 166.816C280.953 165.237 278.713 164.448 275.855 164.448C273.465 164.448 271.311 165.003 269.391 166.112C267.513 167.179 265.913 168.587 264.591 170.336C263.268 172.085 262.244 174.048 261.519 176.224C260.836 178.357 260.495 180.469 260.495 182.56C260.495 184.139 260.687 185.653 261.071 187.104C261.455 188.555 262.052 189.856 262.863 191.008C263.673 192.117 264.697 193.013 265.935 193.696C267.215 194.336 268.729 194.656 270.479 194.656C273.551 194.656 276.132 193.803 278.223 192.096C280.356 190.347 281.977 188.064 283.087 185.248H285.775ZM296.178 163.104H298.61L296.818 170.976H296.946C298.141 168.501 299.762 166.453 301.81 164.832C303.901 163.168 306.418 162.336 309.362 162.336C309.704 162.336 310.045 162.357 310.386 162.4C310.728 162.4 311.069 162.421 311.41 162.464L310.706 165.024C310.066 164.853 309.405 164.768 308.722 164.768C306.333 164.768 304.306 165.387 302.642 166.624C301.021 167.861 299.656 169.397 298.546 171.232C297.437 173.024 296.562 174.965 295.922 177.056C295.282 179.147 294.77 181.024 294.386 182.688L291.506 196H289.074L296.178 163.104ZM325.968 162.336C330.064 162.336 333.242 163.467 335.504 165.728C337.808 167.989 338.96 171.168 338.96 175.264C338.96 177.781 338.576 180.32 337.808 182.88C337.082 185.44 335.973 187.744 334.48 189.792C333.029 191.84 331.194 193.525 328.976 194.848C326.8 196.128 324.282 196.768 321.424 196.768C319.162 196.768 317.2 196.448 315.536 195.808C313.914 195.125 312.549 194.187 311.44 192.992C310.373 191.755 309.562 190.304 309.008 188.64C308.496 186.933 308.24 185.035 308.24 182.944C308.24 180.469 308.645 177.995 309.456 175.52C310.266 173.045 311.418 170.848 312.912 168.928C314.448 166.965 316.304 165.387 318.48 164.192C320.698 162.955 323.194 162.336 325.968 162.336ZM326.48 164.448C323.962 164.405 321.722 164.939 319.76 166.048C317.797 167.115 316.133 168.523 314.768 170.272C313.445 172.021 312.421 174.005 311.696 176.224C311.013 178.4 310.672 180.576 310.672 182.752C310.672 184.416 310.864 185.973 311.248 187.424C311.674 188.832 312.314 190.091 313.168 191.2C314.064 192.267 315.173 193.12 316.496 193.76C317.861 194.357 319.482 194.656 321.36 194.656C323.877 194.656 326.074 194.059 327.952 192.864C329.872 191.627 331.45 190.069 332.688 188.192C333.968 186.315 334.928 184.245 335.568 181.984C336.208 179.68 336.528 177.461 336.528 175.328C336.528 172.085 335.717 169.483 334.096 167.52C332.474 165.557 329.936 164.533 326.48 164.448ZM348.247 163.104H350.679L349.079 170.272H349.207C350.657 167.84 352.492 165.92 354.711 164.512C356.929 163.061 359.532 162.336 362.519 162.336C363.756 162.336 364.929 162.549 366.039 162.976C367.191 163.36 368.193 163.957 369.047 164.768C369.9 165.536 370.583 166.496 371.095 167.648C371.607 168.757 371.863 170.016 371.863 171.424C371.863 171.808 371.82 172.299 371.735 172.896C371.692 173.493 371.607 174.112 371.479 174.752C371.393 175.392 371.287 176.011 371.159 176.608C371.073 177.163 370.988 177.632 370.903 178.016L366.871 196H364.439L368.471 178.08C368.513 177.781 368.577 177.355 368.663 176.8C368.791 176.245 368.897 175.669 368.983 175.072C369.111 174.432 369.217 173.792 369.303 173.152C369.388 172.512 369.431 171.957 369.431 171.488C369.431 169.397 368.748 167.712 367.383 166.432C366.06 165.109 364.161 164.448 361.687 164.448C359.596 164.448 357.719 164.939 356.055 165.92C354.433 166.901 353.004 168.181 351.767 169.76C350.572 171.296 349.569 173.024 348.759 174.944C347.948 176.821 347.351 178.677 346.967 180.512L343.703 196H341.271L348.247 163.104Z" fill="black"/>
</svg>
